<svg width="176" height="32" viewBox="0 0 176 32" fill="none" xmlns="http://www.w3.org/2000/svg">
<path d="M168.611 15.1278C167.521 13.9007 165.998 13.3147 164.369 13.4327C161.839 13.616 159.797 15.5777 159.465 18.0979L159.45 29.2939C159.449 29.8949 159.006 30.5556 158.409 30.5564L155.122 30.5611C154.69 30.5611 154.141 30.0451 154.141 29.5755L154.133 18.267C154.385 15.8506 155.299 13.5358 156.902 11.7322L158.064 10.572C159.68 9.18367 161.666 8.32552 163.802 8.14697L165.781 8.14855C168.151 8.36249 170.342 9.36852 172.063 10.9763C174.087 12.8664 175.259 15.3858 175.447 18.1632V29.4615C175.447 29.9861 174.957 30.5587 174.46 30.5579L171.077 30.5532C170.645 30.5532 170.15 30.0207 170.147 29.5621L170.089 18.5832C170.082 17.2743 169.444 16.0662 168.61 15.1278H168.611Z" fill="#00BBEA"/>
<path d="M94.2144 16.709C96.906 19.9544 96.9116 24.5519 94.0484 27.6848C92.5343 29.3429 90.4719 30.3214 88.2176 30.5778L75.6317 30.5668C75.0409 30.5668 74.5737 29.9218 74.5737 29.3437L74.5753 4.03502C74.5753 3.36958 75.1519 2.8119 75.8039 2.81112L87.3846 2.79932L87.855 2.84887C92.3101 3.24688 95.6066 7.15377 95.2369 11.5979C95.1048 13.1915 94.5243 14.7064 93.486 15.9602L94.2144 16.7106V16.709ZM89.233 12.7738C89.9732 11.9298 90.1486 10.7767 89.6806 9.74867C89.2763 8.85984 88.3875 8.218 87.3193 8.12833L79.898 8.11889V13.7114L87.3311 13.7083C88.0658 13.6092 88.732 13.3449 89.2323 12.7738H89.233ZM88.2962 25.2488C89.8678 24.924 90.9147 23.6025 90.8762 22.0687C90.8392 20.5632 89.7545 19.3134 88.2144 19.0396L79.898 19.0318V25.2583L88.2955 25.2488H88.2962Z" fill="#00BBEA"/>
<path d="M132.679 29.1454C130.969 30.2143 129.045 30.8578 127.049 30.9781C120.744 31.3588 115.284 26.6181 114.688 20.3287L114.649 19.9142C114.563 17.8494 114.995 15.8036 115.946 13.9677C116.505 12.8878 117.172 11.9344 118.048 11.1038L118.726 10.4612C120.609 8.83692 122.931 7.8718 125.42 7.67122L127.218 7.6665C132.97 8.10305 137.523 12.6502 138.015 18.3882L138.027 29.519C137.931 30.013 137.556 30.5612 137.02 30.5589L133.659 30.5455C133.014 30.5431 132.661 29.8116 132.679 29.1454ZM131.15 15.1287L130.519 14.5042C129.529 13.6649 128.344 13.1174 127.029 12.9955L125.651 12.9908C122.931 13.2708 120.75 15.301 120.148 17.8101C119.48 20.5922 120.725 23.3798 123.059 24.7736C125.511 26.2374 128.57 25.9047 130.641 24.0083C131.779 22.9669 132.496 21.6069 132.667 20.0747C132.872 18.2309 132.354 16.5603 131.149 15.1287H131.15Z" fill="#00BBEA"/>
<path d="M105.492 29.5529C105.491 30.0587 104.952 30.5574 104.508 30.5605L101.103 30.5794C100.594 30.3584 100.183 29.9863 100.183 29.3972L100.176 17.5727L100.228 17.0276C100.424 15.0116 101.192 13.138 102.5 11.6136L103.456 10.6563C105.05 9.27513 107.042 8.47204 109.157 8.3517L111.2 8.33203C111.743 8.41541 112.165 8.76071 112.318 9.29243L112.288 12.7006C112.284 13.1749 111.753 13.6257 111.305 13.6343L109.269 13.6744C107.227 13.8695 105.678 15.482 105.513 17.5333L105.491 29.5537L105.492 29.5529Z" fill="#00BBEA"/>
<path d="M147.436 30.5787L143.993 30.5803C143.53 30.434 143.046 30.0179 143.046 29.4587L143.053 9.41134C143.053 8.77107 143.673 8.37385 144.209 8.28418L147.152 8.29205C147.783 8.29362 148.268 8.77579 148.373 9.39796V29.5562C148.254 30.0628 147.942 30.4254 147.435 30.578L147.436 30.5787Z" fill="#00BBEA"/>
<path d="M0 17.6511L0.00157314 15.1852C0.250916 11.9901 1.57943 9.02318 3.71891 6.65166C6.29493 3.7972 9.84551 2.10843 13.6942 1.88426C17.487 1.66245 21.2681 2.96107 24.121 5.45844L25.5203 6.85696C25.7602 7.09686 26.0135 7.37924 26.0819 7.6923C26.207 8.26335 25.9938 8.73686 25.5423 9.04205L23.4665 10.4461C23.1472 10.6624 22.8098 10.87 22.422 10.8551C21.9257 10.8354 21.6755 10.5224 21.3813 10.2007C19.444 8.08401 16.6187 6.96551 13.7445 7.21328C11.4116 7.41464 9.24457 8.43954 7.67693 10.1747C6.39482 11.5929 5.58072 13.3359 5.34317 15.2292L5.28654 16.0268C5.2653 16.3288 5.26294 16.5727 5.28654 16.8747L5.34868 17.6731C5.59173 19.4476 6.33897 21.1065 7.51726 22.4633L8.49968 23.4473C12.3334 26.7344 18.0455 26.3474 21.4325 22.6088C21.7809 22.0567 22.4464 21.8081 23.0772 22.1141L25.6855 23.8728C26.1558 24.1906 26.3006 24.8631 26.0316 25.3382C25.7626 25.8133 25.3645 26.1437 25.0177 26.5409C24.8769 26.7021 24.751 26.8201 24.5929 26.9656L24.0699 27.447C21.6071 29.5826 18.53 30.8002 15.2705 30.9827H13.8106C6.50887 30.6106 0.586782 24.8726 0 17.6511Z" fill="white"/>
<path d="M62.6226 29.5756C62.6218 30.0483 62.0775 30.5611 61.6433 30.5611H58.3492C57.9189 30.5611 57.3683 30.0483 57.3683 29.5756L57.3589 16.8976C57.6546 14.4687 58.6732 12.3811 60.4808 10.76C62.087 9.31902 64.1234 8.47267 66.2904 8.35547L68.378 8.35704C68.9663 8.35704 69.4799 8.91865 69.4799 9.50543L69.4831 12.4936C69.4831 13.1024 68.9286 13.6428 68.3473 13.6499L66.4398 13.6719C64.4939 13.83 62.9215 15.3536 62.6887 17.2893L62.6446 17.7817L62.6234 29.5764L62.6226 29.5756Z" fill="white"/>
<path d="M48.0413 30.5572C47.302 30.5572 46.9142 29.8241 46.9567 29.1303C45.2356 30.2323 43.3038 30.8576 41.313 30.978C34.9449 31.3642 29.4106 26.5236 28.9418 20.1689C28.7177 17.1265 29.7079 14.0722 31.7271 11.7353L32.9942 10.4689C34.8702 8.83128 37.1953 7.87717 39.6832 7.67188H41.5576C44.1014 7.87402 46.4517 8.89342 48.3536 10.5704L49.3604 11.5748C51.0413 13.4595 52.0308 15.7877 52.2794 18.3197L52.2904 29.4717C52.2259 29.9892 51.8334 30.5587 51.2828 30.5579H48.0405L48.0413 30.5572ZM45.5668 23.3144C46.7065 21.9002 47.1061 20.3435 46.9338 18.5643C46.8056 17.2444 46.2259 16.0402 45.3458 15.0515C44.2217 13.789 42.6274 13.0536 40.948 12.9663C39.7226 12.9018 38.6324 13.1582 37.5792 13.7182C35.9297 14.5945 34.7664 16.2109 34.3928 17.8965C33.8838 20.1957 34.6264 22.5853 36.4835 24.1655C38.833 26.1634 42.2789 26.1988 44.6677 24.2221L45.5668 23.316V23.3144Z" fill="white"/>
</svg>
